<svg xmlns="http://www.w3.org/2000/svg" width="100%" height="100%" viewBox="0 0 90 45">
    <title>Amazon Games</title>
    <path fill="#f1c456" d="M75.94 31.28C74.96 29.89 69.48 30.62 67.02 30.95 66.28 31.05 66.16 30.32 66.83 29.8 71.2 26.39 78.36 27.38 79.2 28.52 80.04 29.67 78.98 37.63 74.88 41.43 74.25 42.02 73.65 41.7 73.93 40.93 74.85 38.38 76.92 32.66 75.94 31.28M72.92 35.42C65.2 41.67 54.02 45 44.39 45 30.9 45 18.74 39.52 9.55 30.39 8.82 29.67 9.47 28.69 10.34 29.25 20.26 35.59 32.53 39.42 45.2 39.42 53.75 39.42 63.15 37.47 71.8 33.43 73.1 32.83 74.2 34.38 72.92 35.42" />
    <path fill="#fff" d="M11.8 14.92C10.5 16.14 9.03 16.75 7.4 16.75 5.54 16.75 4.06 15.99 2.95 14.48 1.84 12.97 1.29 10.96 1.29 8.44 1.29 6.79 1.53 5.33 2.03 4.06 2.53 2.79 3.25 1.79 4.19 1.07 5.13 0.36 6.24 0 7.52 0 9.25 0 10.76 0.66 12.04 1.99L12.34 0.49H15.27V15.93C15.27 18.56 14.62 20.59 13.31 22.02 12 23.46 10.14 24.17 7.73 24.17 5.89 24.17 4.15 23.73 2.51 22.84V20.1C4.37 20.78 6.04 21.11 7.52 21.11 9.01 21.11 10.1 20.74 10.78 19.99 11.46 19.24 11.8 18.02 11.8 16.32ZM8.44 13.78C9.62 13.78 10.74 13.36 11.8 12.51V4.17C10.76 3.39 9.65 3 8.47 3 7.26 3 6.35 3.43 5.76 4.3 5.17 5.17 4.88 6.51 4.88 8.31 4.88 11.96 6.07 13.78 8.44 13.78ZM28.45 17.07 28.18 15.48C27.48 16.13 26.71 16.64 25.86 17.01 25.01 17.38 24.17 17.56 23.33 17.56 21.93 17.56 20.8 17.1 19.93 16.19 19.06 15.28 18.63 14.1 18.63 12.64 18.63 11.03 19.16 9.75 20.23 8.8 21.3 7.84 22.73 7.36 24.53 7.36 25.59 7.36 26.74 7.53 28 7.85V5.93C28 4.82 27.78 4.05 27.34 3.62 26.9 3.18 26.14 2.96 25.04 2.96 23.48 2.96 21.69 3.32 19.68 4.04V1.34C20.41 0.92 21.32 0.6 22.39 0.36 23.45 0.12 24.53 0 25.61 0 27.56 0 29.01 0.43 29.93 1.3 30.86 2.17 31.33 3.53 31.33 5.38V17.07ZM24.32 14.82C24.9 14.82 25.51 14.69 26.14 14.42 26.78 14.15 27.4 13.76 28 13.26V10.13C26.94 9.89 26.01 9.77 25.19 9.77 23.11 9.77 22.07 10.65 22.07 12.41 22.07 13.17 22.27 13.77 22.67 14.19 23.07 14.61 23.62 14.82 24.32 14.82ZM54.84 17.07V5.83C54.84 4.83 54.66 4.12 54.3 3.68 53.94 3.25 53.35 3.03 52.53 3.03 51.91 3.03 51.25 3.14 50.56 3.37 49.86 3.6 49.25 3.89 48.73 4.24V17.07H45.2V5.83C45.2 4.83 45.01 4.12 44.65 3.68 44.3 3.25 43.71 3.03 42.89 3.03 42.31 3.03 41.69 3.13 41.02 3.34 40.35 3.55 39.7 3.85 39.08 4.24V17.07H35.55V0.49H38.49L38.81 2.15C39.81 1.41 40.76 0.87 41.64 0.52 42.53 0.17 43.43 0 44.33 0 46.18 0 47.46 0.75 48.16 2.25 50.16 0.75 52.07 0 53.91 0 55.33 0 56.43 0.42 57.21 1.26 57.98 2.09 58.37 3.3 58.37 4.89V17.07ZM65.08 9.71C65.14 11.36 65.57 12.57 66.35 13.34 67.14 14.11 68.36 14.5 69.99 14.5 71.47 14.5 73.07 14.19 74.79 13.59V16.29C74.11 16.68 73.3 16.99 72.37 17.22 71.45 17.45 70.48 17.56 69.49 17.56 66.97 17.56 65.06 16.82 63.76 15.34 62.47 13.87 61.82 11.72 61.82 8.9 61.82 6.09 62.45 3.91 63.72 2.35 64.99 0.78 66.76 0 69.04 0 70.99 0 72.5 0.58 73.54 1.74 74.59 2.91 75.12 4.55 75.12 6.68 75.12 7.81 75.03 8.82 74.85 9.71ZM68.89 2.8C67.81 2.8 66.93 3.19 66.25 3.98 65.57 4.76 65.18 5.81 65.08 7.14H72V6.87C72 5.55 71.74 4.54 71.21 3.85 70.68 3.15 69.91 2.8 68.89 2.8ZM85.45 12.58C85.45 12.1 85.31 11.71 85.03 11.42 84.75 11.13 84.23 10.83 83.47 10.52L80.99 9.48C78.75 8.55 77.63 7.03 77.63 4.92 77.63 3.4 78.15 2.2 79.19 1.32 80.23 0.44 81.61 0 83.35 0 85.01 0 86.51 0.35 87.84 1.04V3.75C86.29 3.2 84.86 2.93 83.56 2.93 82.64 2.93 81.97 3.08 81.54 3.37 81.11 3.66 80.9 4.13 80.9 4.76 80.9 5.24 81.05 5.62 81.36 5.91 81.67 6.21 82.22 6.53 83.02 6.87L85.33 7.85C86.53 8.35 87.39 8.95 87.92 9.64 88.45 10.34 88.71 11.22 88.71 12.28 88.71 13.91 88.18 15.2 87.1 16.14 86.02 17.09 84.52 17.56 82.6 17.56 81.66 17.56 80.75 17.45 79.85 17.23 78.95 17.02 78.16 16.71 77.48 16.32V13.62C79.4 14.29 81.1 14.63 82.57 14.63 83.57 14.63 84.3 14.46 84.76 14.12 85.22 13.79 85.45 13.27 85.45 12.58Z" />
    <!-- <text x="45" y="25" font-family="sans-serif" font-size="10px" fill="white" text-anchor="middle">Galaxy</text> -->
    <text x="45" y="28" font-family="sans-serif" font-size="10px" fill="white" text-anchor="middle">Integration</text>
</svg>
